<svg xmlns="http://www.w3.org/2000/svg" viewBox="0 0 360 420" role="img" aria-label="India map silhouette">
  <metadata>Local fail-safe India outline generated from packaged countryinfo GeoJSON; no runtime network dependency.</metadata>
  <defs>
    <radialGradient id="indiaGlow" cx="52%" cy="43%" r="66%">
      <stop offset="0%" stop-color="#d7dbe4" stop-opacity="0.55"/>
      <stop offset="58%" stop-color="#8b7380" stop-opacity="0.36"/>
      <stop offset="100%" stop-color="#ffffff" stop-opacity="0.10"/>
    </radialGradient>
    <filter id="indiaSoft" x="-30%" y="-30%" width="160%" height="160%">
      <feGaussianBlur stdDeviation="0.55"/>
    </filter>
  </defs>
  <g filter="url(#indiaSoft)">
    <path d="M126.5,61.2 L138.1,73.8 L137.0,82.7 L141.3,88.2 L140.9,93.7 L133.2,92.3 L136.2,104.2 L146.8,111.0 L161.9,118.6 L155.0,123.5 L150.8,133.6 L161.3,137.7 L171.5,143.0 L185.6,149.1 L200.4,150.5 L206.6,156.0 L215.0,157.0 L228.0,159.5 L237.0,159.3 L238.2,155.1 L236.8,148.2 L237.6,143.5 L244.2,141.3 L245.1,149.8 L245.4,151.9 L255.2,156.1 L262.0,154.4 L271.1,155.1 L279.9,154.8 L280.7,148.1 L276.3,144.7 L285.0,143.3 L294.9,135.3 L307.3,128.4 L316.4,131.0 L324.1,126.5 L329.2,133.2 L325.5,137.8 L337.2,139.4 L338.0,143.5 L334.2,145.5 L335.1,152.1 L327.4,150.2 L313.4,157.6 L313.7,163.8 L307.7,172.9 L307.2,178.2 L302.4,187.1 L293.9,184.6 L293.5,195.8 L291.1,199.5 L292.2,204.1 L286.9,206.6 L281.2,189.5 L278.2,189.5 L276.4,196.4 L270.5,190.8 L273.8,184.7 L278.7,184.0 L283.7,174.9 L277.4,173.0 L267.4,173.2 L257.1,171.7 L256.1,164.2 L251.0,163.7 L242.4,159.0 L238.6,166.3 L246.4,172.1 L239.6,176.1 L237.2,180.0 L243.9,182.9 L242.1,189.4 L245.8,197.6 L247.5,206.5 L245.9,210.4 L238.6,210.3 L225.3,212.5 L225.9,220.7 L220.1,227.1 L204.6,234.3 L192.4,247.1 L184.3,253.9 L173.5,261.0 L173.5,265.9 L168.1,268.6 L158.4,272.5 L153.4,273.0 L150.1,281.3 L152.4,295.4 L152.9,304.3 L148.4,314.6 L148.3,333.0 L142.7,333.5 L137.8,341.7 L141.1,345.3 L131.2,348.4 L127.6,355.7 L123.2,358.8 L113.0,348.7 L108.0,333.6 L103.8,322.7 L100.1,317.6 L94.3,307.2 L91.6,293.7 L89.8,286.9 L79.9,272.1 L75.4,251.1 L72.2,237.3 L72.3,224.2 L70.2,214.0 L54.4,220.5 L46.8,219.2 L32.7,206.1 L37.9,202.2 L34.7,198.0 L22.0,188.8 L29.2,181.6 L53.0,181.6 L50.8,172.3 L44.8,166.8 L43.5,158.5 L36.5,153.7 L48.4,142.3 L60.9,143.1 L72.2,131.8 L79.0,120.8 L89.5,110.0 L89.4,102.3 L98.6,96.0 L89.8,90.7 L86.1,83.4 L82.3,73.9 L87.6,69.2 L104.0,71.9 L116.0,70.3 L126.5,61.2 Z" fill="url(#indiaGlow)"/> 
  </g>
  <circle cx="194" cy="164" r="4.5" fill="#ff3b50" opacity=".92"/>
  <circle cx="207" cy="225" r="4.0" fill="#ff3b50" opacity=".82"/>
  <circle cx="185" cy="248" r="4.0" fill="#ff3b50" opacity=".78"/>
</svg>
