<svg xmlns="http://www.w3.org/2000/svg" viewBox="0 0 260 360" role="img" aria-label="Karnataka map silhouette">
  <metadata>Local fail-safe Karnataka silhouette traced from approved design reference; no external image fetch.</metadata>
  <defs>
    <radialGradient id="karnatakaGlow" cx="47%" cy="43%" r="70%">
      <stop offset="0%" stop-color="#e4e8ef" stop-opacity="0.50"/>
      <stop offset="55%" stop-color="#778292" stop-opacity="0.32"/>
      <stop offset="100%" stop-color="#ffffff" stop-opacity="0.10"/>
    </radialGradient>
    <filter id="karnatakaSoft" x="-25%" y="-25%" width="150%" height="150%">
      <feGaussianBlur stdDeviation="0.45"/>
    </filter>
  </defs>
  <path d="M161.9,22.0 L158.8,22.0 L154.1,29.8 L146.3,31.3 L146.3,37.6 L132.3,53.1 L126.1,53.1 L110.5,65.6 L109.0,76.5 L82.5,79.6 L79.4,90.5 L57.6,92.0 L57.6,98.3 L51.4,104.5 L43.6,104.5 L34.3,110.7 L32.7,117.0 L37.4,120.1 L35.8,143.4 L26.5,146.5 L26.5,149.6 L32.7,152.8 L34.3,177.7 L28.0,182.3 L31.2,191.7 L38.9,194.8 L38.9,201.0 L45.2,205.7 L45.2,216.6 L54.5,236.8 L65.4,275.7 L73.2,275.7 L76.3,283.5 L82.5,285.1 L84.1,291.3 L90.3,296.0 L90.3,300.6 L98.1,303.8 L101.2,310.0 L118.3,314.7 L124.6,325.5 L135.4,325.5 L144.8,334.9 L155.7,336.4 L161.9,325.5 L179.0,325.5 L182.1,322.4 L182.1,314.7 L193.0,311.5 L197.7,297.5 L189.9,294.4 L189.9,286.6 L194.6,285.1 L194.6,269.5 L202.4,263.3 L222.6,264.8 L227.3,258.6 L227.3,247.7 L232.0,241.5 L232.0,235.3 L219.5,229.0 L218.0,221.3 L213.3,216.6 L207.1,216.6 L203.9,207.2 L197.7,205.7 L189.9,211.9 L183.7,211.9 L175.9,207.2 L175.9,197.9 L179.0,194.8 L177.5,188.6 L154.1,187.0 L147.9,180.8 L149.5,165.2 L160.4,160.5 L160.4,154.3 L157.2,151.2 L158.8,131.0 L169.7,127.9 L169.7,110.7 L165.0,109.2 L165.0,102.9 L169.7,90.5 L168.1,74.9 L169.7,70.3 L175.9,67.1 L175.9,62.5 L171.3,60.9 L171.3,54.7 L174.4,51.6 L174.4,29.8 L166.6,28.2 Z" fill="url(#karnatakaGlow)" filter="url(#karnatakaSoft)"/>
  <circle cx="137" cy="112" r="3.2" fill="#ff3b50" opacity=".82"/>
  <circle cx="123" cy="177" r="3.2" fill="#ff3b50" opacity=".78"/>
  <circle cx="146" cy="245" r="3.2" fill="#ff3b50" opacity=".76"/>
</svg>
